<svg xmlns="http://www.w3.org/2000/svg" viewBox="1651.07 477.323 8.417 9">
  <defs>
    <style>
      .cls-1 {
        fill: #413E56;
      }
    </style>
  </defs>
  <path id="calendar" class="cls-1" d="M2.806,3.375H3.928V4.5H2.806Zm1.683,0H5.611V4.5H4.489Zm1.683,0H7.295V4.5H6.172ZM1.122,6.75H2.244V7.875H1.122Zm1.683,0H3.928V7.875H2.806Zm1.683,0H5.611V7.875H4.489ZM2.806,5.063H3.928V6.188H2.806Zm1.683,0H5.611V6.188H4.489Zm1.683,0H7.295V6.188H6.172Zm-5.05,0H2.244V6.188H1.122ZM7.295,0V.563H6.172V0H2.244V.563H1.122V0H0V9H8.417V0Zm.561,8.438H.561V2.25H7.856Z" transform="translate(1651.07 477.323)"/>
</svg>
