<svg xmlns="http://www.w3.org/2000/svg" viewBox="1461.032 61.773 16.984 16.47">
  <defs>
    <style>
      .cls-1 {
        fill: #c9c9c9;
      }
    </style>
  </defs>
  <path id="search" class="cls-1" d="M6.369,0a6.275,6.275,0,0,1,6.369,6.176A6,6,0,0,1,12,9.067l4.429,4.293,0,0a1.782,1.782,0,0,1,.562,1.295,1.845,1.845,0,0,1-1.873,1.816,1.893,1.893,0,0,1-1.335-.545h0L9.35,11.636a6.489,6.489,0,0,1-2.981.721A6.275,6.275,0,0,1,0,6.181,6.275,6.275,0,0,1,6.369,0Zm8.07,15.281a.943.943,0,0,0,.672.279.922.922,0,0,0,.937-.908.891.891,0,0,0-.288-.652l0,0L11.483,9.851a6.328,6.328,0,0,1-1.324,1.286l4.279,4.15Zm-8.07-3.958a5.23,5.23,0,0,0,5.307-5.147A5.23,5.23,0,0,0,6.369,1.035,5.23,5.23,0,0,0,1.061,6.181,5.23,5.23,0,0,0,6.369,11.328Zm0-8.75a.257.257,0,1,0,0,.515A3.137,3.137,0,0,1,9.553,6.181a.265.265,0,0,0,.531,0A3.66,3.66,0,0,0,6.369,2.578Z" transform="translate(1461.032 61.768)"/>
</svg>
