<svg xmlns="http://www.w3.org/2000/svg" viewBox="2350.4 517.478 14.564 33.522">
  <defs>
    <style>
      .cls-1 {
        fill: #fff;
      }

      .cls-2 {
        fill: #4e4e4e;
      }
    </style>
  </defs>
  <g id="shovel" transform="translate(2320 512.478)">
    <g id="Group_12" data-name="Group 12" transform="translate(30.4 5)">
      <path id="Subtraction_1" data-name="Subtraction 1" class="cls-1" d="M7.063,32.713h0L6.4,32.434,1.558,28.455.22,25.722,0,17.393H5.842L5.717,7.652l-1.094-.61-.8-1.01L3.253,4.343V0h7.464V4.343l-.461,1.689-.916,1.01-1.317.61v9.741h5.82v8.329l-.967,2.084-1.7,1.88-3.5,2.529-.613.5ZM5.028,1.822,5.019,4.4,5.55,5.549l.671.494H7.607l.95-.494L8.932,4.4V1.822Z" transform="translate(0.267 0.396)"/>
      <path id="Path_55" data-name="Path 55" class="cls-2" d="M48.279,12.468V9.6H43.4v2.868a2.44,2.44,0,1,0,4.879,0Zm-4.06,0V10.419h3.2v2.049a1.59,1.59,0,0,1-1.6,1.6A1.614,1.614,0,0,1,44.219,12.468Z" transform="translate(-38.558 -7.887)"/>
      <path id="Path_56" data-name="Path 56" class="cls-2" d="M39.228,22.283V13.418A4.1,4.1,0,0,0,41.8,9.581V5H33.566V9.581a4.1,4.1,0,0,0,2.57,3.836v8.9H30.4v8.12c0,3.985,6.816,7.822,7.077,8.008l.223.074.186-.112c.3-.149,7.077-3.985,7.077-8.008v-8.12Zm-4.842-12.7V5.857h6.593V9.581a3.288,3.288,0,0,1-2.272,3.129,3.168,3.168,0,0,1-.819.149,3.8,3.8,0,0,1-1.117-.112c-.037,0-.037,0-.074-.037A3.309,3.309,0,0,1,34.385,9.581ZM44.144,30.4c0,3.166-5.326,6.481-6.444,7.151-1.117-.67-6.444-3.985-6.444-7.151V23.139h5.7v-9.5h.037c.074,0,.149.037.223.037h.894a.472.472,0,0,0,.223-.037h.037v13.67a.628.628,0,0,1-.633.633h-.149a.653.653,0,0,1-.633-.633h0a.41.41,0,1,0-.819,0v.037a1.512,1.512,0,0,0,1.49,1.453h.149a1.494,1.494,0,0,0,1.49-1.49V23.139h4.917V30.4Z" transform="translate(-30.4 -5)"/>
    </g>
  </g>
</svg>
