<svg xmlns="http://www.w3.org/2000/svg" viewBox="1580.017 477.17 10.68 9">
  <defs>
    <style>
      .cls-1 {
        fill: #fff;
      }
    </style>
  </defs>
  <g id="users" transform="translate(1580.017 477.17)">
    <path id="Path_53" data-name="Path 53" class="cls-1" d="M12.747,11.086v-.464a2.483,2.483,0,0,0,1.187-2.09c0-1.4,0-2.531-1.78-2.531s-1.78,1.133-1.78,2.531a2.483,2.483,0,0,0,1.187,2.09v.464C9.547,11.242,8,12.18,8,13.313h8.307C16.307,12.18,14.759,11.242,12.747,11.086Z" transform="translate(-5.627 -4.313)"/>
    <path id="Path_54" data-name="Path 54" class="cls-1" d="M3.033,6.99a5.809,5.809,0,0,1,1.852-.707,3.186,3.186,0,0,1-.375-.519,3.093,3.093,0,0,1-.431-1.546,4.756,4.756,0,0,1,.284-2.055,1.922,1.922,0,0,1,1.476-1.05C5.682.442,5.265,0,4.153,0c-1.78,0-1.78,1.133-1.78,2.531A2.483,2.483,0,0,0,3.56,4.622v.464C1.547,5.241,0,6.179,0,7.312H2.587a3.792,3.792,0,0,1,.447-.322Z"/>
  </g>
</svg>
